<svg preserveAspectRatio="none" width="100%" height="100%" overflow="visible" style="display: block;" viewBox="0 0 20 20" fill="none" xmlns="http://www.w3.org/2000/svg">
<g id="Icon" clip-path="url(#clip0_14_1777)">
<path id="Vector" d="M9.17799 2.34427C9.21368 2.15317 9.31509 1.98056 9.46465 1.85635C9.6142 1.73214 9.80249 1.66415 9.9969 1.66415C10.1913 1.66415 10.3796 1.73214 10.5292 1.85635C10.6787 1.98056 10.7801 2.15317 10.8158 2.34427L11.6914 6.9745C11.7536 7.30368 11.9135 7.60648 12.1504 7.84337C12.3873 8.08025 12.6901 8.24023 13.0193 8.30242L17.6495 9.17798C17.8406 9.21367 18.0132 9.31508 18.1374 9.46464C18.2616 9.61419 18.3296 9.80248 18.3296 9.99689C18.3296 10.1913 18.2616 10.3796 18.1374 10.5291C18.0132 10.6787 17.8406 10.7801 17.6495 10.8158L13.0193 11.6914C12.6901 11.7535 12.3873 11.9135 12.1504 12.1504C11.9135 12.3873 11.7536 12.6901 11.6914 13.0193L10.8158 17.6495C10.7801 17.8406 10.6787 18.0132 10.5292 18.1374C10.3796 18.2616 10.1913 18.3296 9.9969 18.3296C9.80249 18.3296 9.6142 18.2616 9.46465 18.1374C9.31509 18.0132 9.21368 17.8406 9.17799 17.6495L8.30243 13.0193C8.24024 12.6901 8.08027 12.3873 7.84338 12.1504C7.60649 11.9135 7.3037 11.7535 6.97451 11.6914L2.34428 10.8158C2.15318 10.7801 1.98057 10.6787 1.85637 10.5291C1.73216 10.3796 1.66417 10.1913 1.66417 9.99689C1.66417 9.80248 1.73216 9.61419 1.85637 9.46464C1.98057 9.31508 2.15318 9.21367 2.34428 9.17798L6.97451 8.30242C7.3037 8.24023 7.60649 8.08025 7.84338 7.84337C8.08027 7.60648 8.24024 7.30368 8.30243 6.9745L9.17799 2.34427Z" stroke="var(--stroke-0, white)" stroke-width="1.66615" stroke-linecap="round" stroke-linejoin="round"/>
<path id="Vector_2" d="M16.6615 1.66615V4.99844" stroke="var(--stroke-0, white)" stroke-width="1.66615" stroke-linecap="round" stroke-linejoin="round"/>
<path id="Vector_3" d="M18.3276 3.3323H14.9953" stroke="var(--stroke-0, white)" stroke-width="1.66615" stroke-linecap="round" stroke-linejoin="round"/>
<path id="Vector_4" d="M3.3323 18.3276C4.25248 18.3276 4.99844 17.5817 4.99844 16.6615C4.99844 15.7413 4.25248 14.9953 3.3323 14.9953C2.41211 14.9953 1.66615 15.7413 1.66615 16.6615C1.66615 17.5817 2.41211 18.3276 3.3323 18.3276Z" stroke="var(--stroke-0, white)" stroke-width="1.66615" stroke-linecap="round" stroke-linejoin="round"/>
</g>
<defs>
<clipPath id="clip0_14_1777">
<rect width="19.9938" height="19.9938" fill="white"/>
</clipPath>
</defs>
</svg>
