<svg preserveAspectRatio="none" width="100%" height="100%" overflow="visible" style="display: block;" viewBox="0 0 48 48" fill="none" xmlns="http://www.w3.org/2000/svg">
<g id="Icon">
<path id="Vector" d="M22.0322 5.62754C22.1179 5.16878 22.3613 4.75444 22.7203 4.45627C23.0794 4.1581 23.5313 3.99488 23.998 3.99488C24.4647 3.99488 24.9167 4.1581 25.2757 4.45627C25.6348 4.75444 25.8782 5.16878 25.9639 5.62754L28.0657 16.7426C28.215 17.5329 28.599 18.2597 29.1677 18.8284C29.7363 19.3971 30.4632 19.7811 31.2534 19.9304L42.3685 22.0322C42.8273 22.1179 43.2416 22.3613 43.5398 22.7203C43.838 23.0794 44.0012 23.5313 44.0012 23.998C44.0012 24.4647 43.838 24.9167 43.5398 25.2757C43.2416 25.6348 42.8273 25.8782 42.3685 25.9639L31.2534 28.0657C30.4632 28.215 29.7363 28.599 29.1677 29.1677C28.599 29.7363 28.215 30.4632 28.0657 31.2534L25.9639 42.3685C25.8782 42.8273 25.6348 43.2416 25.2757 43.5398C24.9167 43.838 24.4647 44.0012 23.998 44.0012C23.5313 44.0012 23.0794 43.838 22.7203 43.5398C22.3613 43.2416 22.1179 42.8273 22.0322 42.3685L19.9304 31.2534C19.7811 30.4632 19.3971 29.7363 18.8284 29.1677C18.2597 28.599 17.5329 28.215 16.7426 28.0657L5.62754 25.9639C5.16878 25.8782 4.75444 25.6348 4.45627 25.2757C4.1581 24.9167 3.99488 24.4647 3.99488 23.998C3.99488 23.5313 4.1581 23.0794 4.45627 22.7203C4.75444 22.3613 5.16878 22.1179 5.62754 22.0322L16.7426 19.9304C17.5329 19.7811 18.2597 19.3971 18.8284 18.8284C19.3971 18.2597 19.7811 17.5329 19.9304 16.7426L22.0322 5.62754Z" stroke="var(--stroke-0, white)" stroke-width="3.99967" stroke-linecap="round" stroke-linejoin="round"/>
<path id="Vector_2" d="M39.9967 3.99967V11.999" stroke="var(--stroke-0, white)" stroke-width="3.99967" stroke-linecap="round" stroke-linejoin="round"/>
<path id="Vector_3" d="M43.9964 7.99935H35.9971" stroke="var(--stroke-0, white)" stroke-width="3.99967" stroke-linecap="round" stroke-linejoin="round"/>
<path id="Vector_4" d="M7.99935 43.9964C10.2083 43.9964 11.999 42.2057 11.999 39.9967C11.999 37.7878 10.2083 35.9971 7.99935 35.9971C5.79039 35.9971 3.99967 37.7878 3.99967 39.9967C3.99967 42.2057 5.79039 43.9964 7.99935 43.9964Z" stroke="var(--stroke-0, white)" stroke-width="3.99967" stroke-linecap="round" stroke-linejoin="round"/>
</g>
</svg>
