<svg preserveAspectRatio="none" width="100%" height="100%" overflow="visible" style="display: block;" viewBox="0 0 28 28" fill="none" xmlns="http://www.w3.org/2000/svg">
<g id="Icon">
<path id="Vector" d="M2.33261 11.0799C2.33263 9.782 2.72634 8.51467 3.46174 7.44527C4.19715 6.37586 5.23964 5.55468 6.45154 5.09019C7.66343 4.6257 8.98772 4.53975 10.2495 4.84369C11.5113 5.14763 12.6512 5.82716 13.5186 6.79253C13.5797 6.85786 13.6536 6.90994 13.7356 6.94555C13.8177 6.98116 13.9062 6.99953 13.9956 6.99953C14.0851 6.99953 14.1736 6.98116 14.2556 6.94555C14.3377 6.90994 14.4116 6.85786 14.4727 6.79253C15.3374 5.82088 16.4776 5.13564 17.7414 4.82801C19.0052 4.52038 20.3327 4.60495 21.5473 5.07046C22.7619 5.53598 23.8059 6.36036 24.5403 7.43388C25.2748 8.5074 25.6649 9.77915 25.6587 11.0799C25.6587 13.7507 23.9092 15.7451 22.1598 17.4945L15.7544 23.6911C15.5371 23.9407 15.2692 24.1412 14.9684 24.2793C14.6676 24.4173 14.3409 24.4898 14.01 24.4919C13.679 24.494 13.3514 24.4257 13.0489 24.2914C12.7464 24.1572 12.476 23.9601 12.2555 23.7133L5.83152 17.4945C4.08206 15.7451 2.33261 13.7624 2.33261 11.0799Z" stroke="var(--stroke-0, #009966)" stroke-width="2.33261" stroke-linecap="round" stroke-linejoin="round"/>
</g>
</svg>
