<svg preserveAspectRatio="none" width="100%" height="100%" overflow="visible" style="display: block;" viewBox="0 0 20 20" fill="none" xmlns="http://www.w3.org/2000/svg">
<g id="Icon" clip-path="url(#clip0_14_1773)">
<path id="Vector" d="M11.6605 3.3323C11.9611 3.33229 12.2561 3.41359 12.5142 3.56759C12.7723 3.72158 12.984 3.94253 13.1267 4.20702L13.5316 4.95679C13.6744 5.22129 13.8861 5.44224 14.1442 5.59623C14.4023 5.75022 14.6973 5.83152 14.9978 5.83152H16.6615C17.1034 5.83152 17.5272 6.00706 17.8396 6.31952C18.1521 6.63199 18.3276 7.05578 18.3276 7.49767V14.9953C18.3276 15.4372 18.1521 15.861 17.8396 16.1735C17.5272 16.4859 17.1034 16.6615 16.6615 16.6615H3.3323C2.89041 16.6615 2.46662 16.4859 2.15415 16.1735C1.84169 15.861 1.66615 15.4372 1.66615 14.9953V7.49767C1.66615 7.05578 1.84169 6.63199 2.15415 6.31952C2.46662 6.00706 2.89041 5.83152 3.3323 5.83152H4.99595C5.2962 5.83154 5.59088 5.75041 5.84883 5.59673C6.10678 5.44305 6.3184 5.22252 6.46132 4.95846L6.8687 4.20536C7.01162 3.9413 7.22324 3.72077 7.48119 3.56708C7.73913 3.4134 8.03382 3.33228 8.33407 3.3323H11.6605Z" stroke="var(--stroke-0, white)" stroke-width="1.66615" stroke-linecap="round" stroke-linejoin="round"/>
<path id="Vector_2" d="M9.99689 13.3292C11.3772 13.3292 12.4961 12.2102 12.4961 10.83C12.4961 9.44968 11.3772 8.33074 9.99689 8.33074C8.61661 8.33074 7.49767 9.44968 7.49767 10.83C7.49767 12.2102 8.61661 13.3292 9.99689 13.3292Z" stroke="var(--stroke-0, white)" stroke-width="1.66615" stroke-linecap="round" stroke-linejoin="round"/>
</g>
<defs>
<clipPath id="clip0_14_1773">
<rect width="19.9938" height="19.9938" fill="white"/>
</clipPath>
</defs>
</svg>
