<svg preserveAspectRatio="none" width="100%" height="100%" overflow="visible" style="display: block;" viewBox="0 0 20 20" fill="none" xmlns="http://www.w3.org/2000/svg">
<g id="Icon" clip-path="url(#clip0_14_1783)">
<path id="Vector" d="M9.99689 5.83152V17.4946" stroke="var(--stroke-0, white)" stroke-width="1.66615" stroke-linecap="round" stroke-linejoin="round"/>
<path id="Vector_2" d="M2.49922 14.9953C2.27828 14.9953 2.06638 14.9076 1.91015 14.7513C1.75392 14.5951 1.66615 14.3832 1.66615 14.1623V3.3323C1.66615 3.11135 1.75392 2.89946 1.91015 2.74322C2.06638 2.58699 2.27828 2.49922 2.49922 2.49922H6.66459C7.54837 2.49922 8.39596 2.8503 9.02088 3.47523C9.64581 4.10016 9.99689 4.94774 9.99689 5.83152C9.99689 4.94774 10.348 4.10016 10.9729 3.47523C11.5978 2.8503 12.4454 2.49922 13.3292 2.49922H17.4946C17.7155 2.49922 17.9274 2.58699 18.0836 2.74322C18.2399 2.89946 18.3276 3.11135 18.3276 3.3323V14.1623C18.3276 14.3832 18.2399 14.5951 18.0836 14.7513C17.9274 14.9076 17.7155 14.9953 17.4946 14.9953H12.4961C11.8333 14.9953 11.1976 15.2586 10.7289 15.7273C10.2602 16.196 9.99689 16.8317 9.99689 17.4946C9.99689 16.8317 9.73358 16.196 9.26488 15.7273C8.79619 15.2586 8.1605 14.9953 7.49767 14.9953H2.49922Z" stroke="var(--stroke-0, white)" stroke-width="1.66615" stroke-linecap="round" stroke-linejoin="round"/>
</g>
<defs>
<clipPath id="clip0_14_1783">
<rect width="19.9938" height="19.9938" fill="white"/>
</clipPath>
</defs>
</svg>
