<svg preserveAspectRatio="none" width="100%" height="100%" overflow="visible" style="display: block;" viewBox="0 0 32 32" fill="none" xmlns="http://www.w3.org/2000/svg">
<g id="Icon">
<path id="Vector" d="M18.6569 5.33167C19.1378 5.33167 19.6097 5.46175 20.0227 5.70814C20.4357 5.95453 20.7744 6.30805 21.0028 6.73124L21.6506 7.93086C21.879 8.35406 22.2177 8.70758 22.6307 8.95397C23.0437 9.20035 23.5156 9.33044 23.9965 9.33043H26.6584C27.3654 9.33043 28.0435 9.61129 28.5434 10.1112C29.0433 10.6112 29.3242 11.2892 29.3242 11.9963V23.9925C29.3242 24.6996 29.0433 25.3776 28.5434 25.8776C28.0435 26.3775 27.3654 26.6584 26.6584 26.6584H5.33167C4.62465 26.6584 3.94658 26.3775 3.44664 25.8776C2.9467 25.3776 2.66584 24.6996 2.66584 23.9925V11.9963C2.66584 11.2892 2.9467 10.6112 3.44664 10.1112C3.94658 9.61129 4.62465 9.33043 5.33167 9.33043H7.99351C8.47392 9.33046 8.94542 9.20066 9.35813 8.95477C9.77084 8.70888 10.1094 8.35603 10.3381 7.93353L10.9899 6.72857C11.2186 6.30608 11.5572 5.95323 11.9699 5.70734C12.3826 5.46144 12.8541 5.33165 13.3345 5.33167H18.6569Z" stroke="var(--stroke-0, white)" stroke-width="2.66584" stroke-linecap="round" stroke-linejoin="round"/>
<path id="Vector_2" d="M15.995 21.3267C18.2035 21.3267 19.9938 19.5364 19.9938 17.3279C19.9938 15.1195 18.2035 13.3292 15.995 13.3292C13.7866 13.3292 11.9963 15.1195 11.9963 17.3279C11.9963 19.5364 13.7866 21.3267 15.995 21.3267Z" stroke="var(--stroke-0, white)" stroke-width="2.66584" stroke-linecap="round" stroke-linejoin="round"/>
</g>
</svg>
