<svg preserveAspectRatio="none" width="100%" height="100%" overflow="visible" style="display: block;" viewBox="0 0 16 16" fill="none" xmlns="http://www.w3.org/2000/svg">
<g id="Icon" clip-path="url(#clip0_14_1808)">
<path id="Vector" d="M13.3292 8.66394C13.3292 11.9962 10.9966 13.6624 8.22411 14.6288C8.07893 14.678 7.92123 14.6756 7.77758 14.6221C4.99844 13.6624 2.66584 11.9962 2.66584 8.66394V3.99873C2.66584 3.82197 2.73605 3.65246 2.86104 3.52747C2.98602 3.40249 3.15554 3.33227 3.3323 3.33227C4.66521 3.33227 6.33136 2.53252 7.491 1.5195C7.63219 1.39887 7.8118 1.33259 7.99751 1.33259C8.18322 1.33259 8.36283 1.39887 8.50402 1.5195C9.67032 2.53918 11.3298 3.33227 12.6627 3.33227C12.8395 3.33227 13.009 3.40249 13.134 3.52747C13.259 3.65246 13.3292 3.82197 13.3292 3.99873V8.66394Z" stroke="var(--stroke-0, #009966)" stroke-width="1.33292" stroke-linecap="round" stroke-linejoin="round"/>
</g>
<defs>
<clipPath id="clip0_14_1808">
<rect width="15.995" height="15.995" fill="white"/>
</clipPath>
</defs>
</svg>
