<svg preserveAspectRatio="none" width="100%" height="100%" overflow="visible" style="display: block;" viewBox="0 0 32 32" fill="none" xmlns="http://www.w3.org/2000/svg">
<g id="Icon">
<path id="Vector" d="M13.3292 19.5406V21.7079C13.3242 22.1646 13.2019 22.6123 12.9741 23.0082C12.7463 23.404 12.4206 23.7347 12.0283 23.9685C11.1954 24.5854 10.5178 25.3881 10.0495 26.3127C9.58119 27.2373 9.33497 28.2584 9.33043 29.2949" stroke="var(--stroke-0, #155DFC)" stroke-width="2.66584" stroke-linecap="round" stroke-linejoin="round"/>
<path id="Vector_2" d="M18.6609 19.5406V21.7079C18.6659 22.1646 18.7882 22.6123 19.016 23.0082C19.2438 23.404 19.5695 23.7347 19.9618 23.9685C20.7947 24.5854 21.4722 25.3881 21.9405 26.3127C22.4089 27.2373 22.6551 28.2584 22.6596 29.2949" stroke="var(--stroke-0, #155DFC)" stroke-width="2.66584" stroke-linecap="round" stroke-linejoin="round"/>
<path id="Vector_3" d="M23.9925 11.9963H25.9919C26.8757 11.9963 27.7233 11.6452 28.3482 11.0203C28.9731 10.3953 29.3242 9.54775 29.3242 8.66397C29.3242 7.78019 28.9731 6.93261 28.3482 6.30768C27.7233 5.68275 26.8757 5.33167 25.9919 5.33167H23.9925" stroke="var(--stroke-0, #155DFC)" stroke-width="2.66584" stroke-linecap="round" stroke-linejoin="round"/>
<path id="Vector_4" d="M5.33167 29.3242H26.6584" stroke="var(--stroke-0, #155DFC)" stroke-width="2.66584" stroke-linecap="round" stroke-linejoin="round"/>
<path id="Vector_5" d="M7.99751 11.9963C7.99751 14.1173 8.8401 16.1515 10.3399 17.6514C11.8398 19.1512 13.874 19.9938 15.995 19.9938C18.1161 19.9938 20.1503 19.1512 21.6501 17.6514C23.1499 16.1515 23.9925 14.1173 23.9925 11.9963V3.99876C23.9925 3.64524 23.8521 3.30621 23.6021 3.05624C23.3522 2.80627 23.0131 2.66584 22.6596 2.66584H9.33043C8.97692 2.66584 8.63789 2.80627 8.38791 3.05624C8.13794 3.30621 7.99751 3.64524 7.99751 3.99876V11.9963Z" stroke="var(--stroke-0, #155DFC)" stroke-width="2.66584" stroke-linecap="round" stroke-linejoin="round"/>
<path id="Vector_6" d="M7.99751 11.9963H5.99813C5.11435 11.9963 4.26677 11.6452 3.64184 11.0203C3.01692 10.3953 2.66584 9.54775 2.66584 8.66397C2.66584 7.78019 3.01692 6.93261 3.64184 6.30768C4.26677 5.68275 5.11435 5.33167 5.99813 5.33167H7.99751" stroke="var(--stroke-0, #155DFC)" stroke-width="2.66584" stroke-linecap="round" stroke-linejoin="round"/>
</g>
</svg>
