<svg preserveAspectRatio="none" width="100%" height="100%" overflow="visible" style="display: block;" viewBox="0 0 32 32" fill="none" xmlns="http://www.w3.org/2000/svg">
<g id="Icon">
<path id="Vector" d="M28.3912 20.3936C28.6894 20.6908 28.926 21.044 29.0875 21.4328C29.2489 21.8217 29.3321 22.2386 29.3321 22.6596C29.3321 23.0806 29.2489 23.4975 29.0875 23.8864C28.926 24.2752 28.6894 24.6284 28.3912 24.9256L24.9256 28.3911C24.6284 28.6894 24.2752 28.926 23.8864 29.0875C23.4975 29.2489 23.0806 29.332 22.6596 29.332C22.2386 29.332 21.8217 29.2489 21.4328 29.0875C21.044 28.926 20.6909 28.6894 20.3937 28.3911L3.59888 11.5964C2.99981 10.9944 2.6635 10.1797 2.6635 9.33041C2.6635 8.48114 2.99981 7.66643 3.59888 7.06445L7.06447 3.59886C7.66645 2.99979 8.48116 2.66348 9.33043 2.66348C10.1797 2.66348 10.9944 2.99979 11.5964 3.59886L28.3912 20.3936Z" stroke="var(--stroke-0, #155DFC)" stroke-width="2.66584" stroke-linecap="round" stroke-linejoin="round"/>
<path id="Vector_2" d="M19.3273 16.6615L21.9932 13.9956" stroke="var(--stroke-0, #155DFC)" stroke-width="2.66584" stroke-linecap="round" stroke-linejoin="round"/>
<path id="Vector_3" d="M15.3286 12.6627L17.9944 9.99689" stroke="var(--stroke-0, #155DFC)" stroke-width="2.66584" stroke-linecap="round" stroke-linejoin="round"/>
<path id="Vector_4" d="M11.3298 8.66397L13.9956 5.99813" stroke="var(--stroke-0, #155DFC)" stroke-width="2.66584" stroke-linecap="round" stroke-linejoin="round"/>
<path id="Vector_5" d="M23.3261 20.6602L25.9919 17.9944" stroke="var(--stroke-0, #155DFC)" stroke-width="2.66584" stroke-linecap="round" stroke-linejoin="round"/>
</g>
</svg>
