<svg preserveAspectRatio="none" width="100%" height="100%" overflow="visible" style="display: block;" viewBox="0 0 40 40" fill="none" xmlns="http://www.w3.org/2000/svg">
<g id="Icon">
<path id="Vector" d="M21.6659 26.6657H19.9993V19.9993H18.3327M19.9993 13.3329H20.016M34.9988 19.9993C34.9988 21.9691 34.6108 23.9195 33.857 25.7394C33.1032 27.5592 31.9984 29.2127 30.6055 30.6055C29.2127 31.9984 27.5592 33.1032 25.7394 33.857C23.9195 34.6108 21.9691 34.9988 19.9993 34.9988C18.0295 34.9988 16.0791 34.6108 14.2592 33.857C12.4394 33.1032 10.7859 31.9984 9.39307 30.6055C8.00024 29.2127 6.89539 27.5592 6.14159 25.7394C5.3878 23.9195 4.99982 21.9691 4.99983 19.9993C4.99983 16.0212 6.58012 12.206 9.39307 9.39307C12.206 6.58012 16.0212 4.99983 19.9993 4.99983C23.9774 4.99983 27.7926 6.58012 30.6055 9.39307C33.4185 12.206 34.9988 16.0212 34.9988 19.9993Z" stroke="var(--stroke-0, white)" stroke-width="3.33321" stroke-linecap="round" stroke-linejoin="round"/>
</g>
</svg>
