<svg preserveAspectRatio="none" width="100%" height="100%" overflow="visible" style="display: block;" viewBox="0 0 24 24" fill="none" xmlns="http://www.w3.org/2000/svg">
<g id="Icon">
<path id="Vector" d="M18.4942 20.9935C20.4266 20.9935 21.9932 19.427 21.9932 17.4946C21.9932 15.5622 20.4266 13.9956 18.4942 13.9956C16.5619 13.9956 14.9953 15.5622 14.9953 17.4946C14.9953 19.427 16.5619 20.9935 18.4942 20.9935Z" stroke="var(--stroke-0, #4A5565)" stroke-width="1.99938" stroke-linecap="round" stroke-linejoin="round"/>
<path id="Vector_2" d="M5.49829 20.9935C7.43068 20.9935 8.9972 19.427 8.9972 17.4946C8.9972 15.5622 7.43068 13.9956 5.49829 13.9956C3.56589 13.9956 1.99938 15.5622 1.99938 17.4946C1.99938 19.427 3.56589 20.9935 5.49829 20.9935Z" stroke="var(--stroke-0, #4A5565)" stroke-width="1.99938" stroke-linecap="round" stroke-linejoin="round"/>
<path id="Vector_3" d="M14.9956 5.99876C15.5479 5.99876 15.9956 5.55104 15.9956 4.99876C15.9956 4.44647 15.5479 3.99876 14.9956 3.99876C14.4434 3.99876 13.9956 4.44647 13.9956 4.99876C13.9956 5.55104 14.4434 5.99876 14.9956 5.99876Z" stroke="var(--stroke-0, #4A5565)" stroke-width="1.99938" stroke-linecap="round" stroke-linejoin="round"/>
<path id="Vector_4" d="M11.9963 17.4946V13.9956L8.9972 10.9966L12.996 7.99751L14.9953 10.9966H16.9947" stroke="var(--stroke-0, #4A5565)" stroke-width="1.99938" stroke-linecap="round" stroke-linejoin="round"/>
</g>
</svg>
