<svg preserveAspectRatio="none" width="100%" height="100%" overflow="visible" style="display: block;" viewBox="0 0 24 24" fill="none" xmlns="http://www.w3.org/2000/svg">
<g id="Icon" clip-path="url(#clip0_13_1712)">
<path id="Vector" d="M17.5905 12.764C17.9656 13.1391 18.4742 13.3498 19.0046 13.3498C19.535 13.3498 20.0436 13.1391 20.4186 12.764C20.7937 12.389 21.0044 11.8804 21.0044 11.35C21.0044 10.8196 20.7937 10.3109 20.4186 9.93592L18.6512 8.16946C19.0262 8.54436 19.5348 8.75493 20.0651 8.75483C20.3277 8.75479 20.5877 8.70303 20.8302 8.6025C21.0728 8.50198 21.2932 8.35466 21.4788 8.16897C21.6644 7.98327 21.8117 7.76283 21.9121 7.52023C22.0126 7.27763 22.0642 7.01762 22.0642 6.75505C22.0641 6.49248 22.0124 6.23249 21.9119 5.98993C21.8113 5.74737 21.664 5.52698 21.4783 5.34134L18.6512 2.51422C18.2763 2.13919 17.7678 1.92845 17.2375 1.92836C16.7072 1.92826 16.1986 2.13883 15.8236 2.51372C15.4485 2.88862 15.2378 3.39715 15.2377 3.92743C15.2376 4.45771 15.4482 4.96631 15.8231 5.34134L14.0566 3.57389C13.8709 3.3882 13.6505 3.24089 13.4079 3.1404C13.1652 3.0399 12.9052 2.98817 12.6426 2.98817C12.38 2.98817 12.1199 3.0399 11.8773 3.1404C11.6347 3.24089 11.4142 3.3882 11.2285 3.57389C11.0428 3.75959 10.8955 3.98005 10.795 4.22267C10.6945 4.4653 10.6428 4.72534 10.6428 4.98795C10.6428 5.25057 10.6945 5.51061 10.795 5.75324C10.8955 5.99586 11.0428 6.21632 11.2285 6.40201L17.5905 12.764Z" stroke="var(--stroke-0, #4A5565)" stroke-width="1.99938" stroke-linecap="round" stroke-linejoin="round"/>
<path id="Vector_2" d="M2.49922 21.4937L3.89922 20.0937" stroke="var(--stroke-0, #4A5565)" stroke-width="1.99938" stroke-linecap="round" stroke-linejoin="round"/>
<path id="Vector_3" d="M20.0938 3.89922L21.4937 2.49922" stroke="var(--stroke-0, #4A5565)" stroke-width="1.99938" stroke-linecap="round" stroke-linejoin="round"/>
<path id="Vector_4" d="M5.34134 21.4783C5.71624 21.8534 6.22476 22.0641 6.75504 22.0642C7.01761 22.0643 7.27762 22.0126 7.52022 21.9121C7.76282 21.8117 7.98326 21.6645 8.16896 21.4788C8.35465 21.2932 8.50197 21.0728 8.60249 20.8303C8.70302 20.5877 8.75478 20.3277 8.75483 20.0651C8.75487 19.8026 8.7032 19.5426 8.60276 19.3C8.50233 19.0574 8.35509 18.8369 8.16946 18.6512L9.93591 20.4187C10.3109 20.7937 10.8196 21.0044 11.35 21.0044C11.8803 21.0044 12.389 20.7937 12.764 20.4187C13.1391 20.0436 13.3498 19.535 13.3498 19.0046C13.3498 18.4742 13.1391 17.9656 12.764 17.5906L6.40201 11.2285C6.21631 11.0428 5.99586 10.8955 5.75323 10.795C5.51061 10.6945 5.25056 10.6428 4.98795 10.6428C4.72533 10.6428 4.46529 10.6945 4.22266 10.795C3.98004 10.8955 3.75958 11.0428 3.57389 11.2285C3.38819 11.4142 3.24089 11.6347 3.14039 11.8773C3.03989 12.1199 2.98816 12.38 2.98816 12.6426C2.98816 12.9052 3.03989 13.1652 3.14039 13.4079C3.24089 13.6505 3.38819 13.871 3.57389 14.0566L5.34134 15.8231C4.96631 15.4482 4.45771 15.2376 3.92742 15.2377C3.39714 15.2378 2.88862 15.4486 2.51372 15.8236C2.13882 16.1986 1.92825 16.7072 1.92835 17.2375C1.92844 17.7678 2.13918 18.2763 2.51422 18.6512L5.34134 21.4783Z" stroke="var(--stroke-0, #4A5565)" stroke-width="1.99938" stroke-linecap="round" stroke-linejoin="round"/>
<path id="Vector_5" d="M9.59702 14.3955L14.3955 9.59699" stroke="var(--stroke-0, #4A5565)" stroke-width="1.99938" stroke-linecap="round" stroke-linejoin="round"/>
</g>
<defs>
<clipPath id="clip0_13_1712">
<rect width="23.9925" height="23.9925" fill="white"/>
</clipPath>
</defs>
</svg>
