<svg preserveAspectRatio="none" width="100%" height="100%" overflow="visible" style="display: block;" viewBox="0 0 28 28" fill="none" xmlns="http://www.w3.org/2000/svg">
<g id="Icon">
<path id="Vector" d="M20.5223 14.8914C20.9598 15.3289 21.5532 15.5747 22.172 15.5747C22.7908 15.5747 23.3842 15.3289 23.8217 14.8914C24.2593 14.4538 24.5051 13.8604 24.5051 13.2416C24.5051 12.6229 24.2593 12.0294 23.8217 11.5919L21.7597 9.53104C22.1973 9.96842 22.7906 10.2141 23.4093 10.214C23.7156 10.2139 24.0189 10.1535 24.3019 10.0363C24.5849 9.91897 24.842 9.74711 25.0586 9.53046C25.2752 9.31381 25.447 9.05663 25.5641 8.7736C25.6813 8.49056 25.7416 8.18722 25.7415 7.88089C25.7415 7.57456 25.6811 7.27124 25.5638 6.98825C25.4465 6.70526 25.2747 6.44814 25.058 6.23157L21.7597 2.93326C21.3223 2.49572 20.7291 2.24986 20.1104 2.24975C19.4917 2.24964 18.8984 2.4953 18.4608 2.93268C18.0233 3.37006 17.7774 3.96334 17.7773 4.582C17.7772 5.20066 18.0229 5.79403 18.4603 6.23157L16.3994 4.16954C16.1827 3.9529 15.9255 3.78104 15.6425 3.6638C15.3594 3.54655 15.056 3.4862 14.7497 3.4862C14.4433 3.4862 14.1399 3.54655 13.8568 3.6638C13.5738 3.78104 13.3166 3.9529 13.0999 4.16954C12.8833 4.38619 12.7114 4.64339 12.5942 4.92645C12.4769 5.20951 12.4166 5.5129 12.4166 5.81928C12.4166 6.12566 12.4769 6.42905 12.5942 6.71211C12.7114 6.99517 12.8833 7.25237 13.0999 7.46902L20.5223 14.8914Z" stroke="var(--stroke-0, #0092B8)" stroke-width="2.33261" stroke-linecap="round" stroke-linejoin="round"/>
<path id="Vector_2" d="M2.91576 25.0755L4.54858 23.4427" stroke="var(--stroke-0, #0092B8)" stroke-width="2.33261" stroke-linecap="round" stroke-linejoin="round"/>
<path id="Vector_3" d="M23.4427 4.54858L25.0755 2.91576" stroke="var(--stroke-0, #0092B8)" stroke-width="2.33261" stroke-linecap="round" stroke-linejoin="round"/>
<path id="Vector_4" d="M6.23156 25.058C6.66894 25.4956 7.26222 25.7414 7.88088 25.7415C8.18721 25.7416 8.49056 25.6813 8.77359 25.5641C9.05662 25.447 9.3138 25.2752 9.53045 25.0586C9.7471 24.842 9.91896 24.5849 10.0362 24.3019C10.1535 24.0189 10.2139 23.7156 10.214 23.4093C10.214 23.103 10.1537 22.7996 10.0366 22.5166C9.91938 22.2335 9.7476 21.9764 9.53103 21.7597L11.5919 23.8217C12.0294 24.2593 12.6229 24.5051 13.2416 24.5051C13.8604 24.5051 14.4538 24.2593 14.8914 23.8217C15.3289 23.3842 15.5747 22.7908 15.5747 22.172C15.5747 21.5532 15.3289 20.9598 14.8914 20.5223L7.46901 13.0999C7.25236 12.8833 6.99516 12.7114 6.7121 12.5942C6.42904 12.4769 6.12566 12.4166 5.81927 12.4166C5.51289 12.4166 5.2095 12.4769 4.92644 12.5942C4.64338 12.7114 4.38618 12.8833 4.16953 13.0999C3.95289 13.3166 3.78103 13.5738 3.66379 13.8568C3.54654 14.1399 3.48619 14.4433 3.48619 14.7497C3.48619 15.056 3.54654 15.3594 3.66379 15.6425C3.78103 15.9255 3.95289 16.1827 4.16953 16.3994L6.23156 18.4602C5.79402 18.0229 5.20066 17.7772 4.58199 17.7773C3.96333 17.7774 3.37005 18.0233 2.93267 18.4608C2.49529 18.8984 2.24963 19.4917 2.24974 20.1104C2.24985 20.7291 2.49572 21.3223 2.93325 21.7597L6.23156 25.058Z" stroke="var(--stroke-0, #0092B8)" stroke-width="2.33261" stroke-linecap="round" stroke-linejoin="round"/>
<path id="Vector_5" d="M11.1965 16.7948L16.7948 11.1965" stroke="var(--stroke-0, #0092B8)" stroke-width="2.33261" stroke-linecap="round" stroke-linejoin="round"/>
</g>
</svg>
