<svg preserveAspectRatio="none" width="100%" height="100%" overflow="visible" style="display: block;" viewBox="0 0 24 24" fill="none" xmlns="http://www.w3.org/2000/svg">
<g id="Icon">
<path id="Vector" d="M18.9941 8.9972V5.99813C18.9941 5.46787 18.7834 4.95932 18.4085 4.58436C18.0335 4.2094 17.525 3.99876 16.9947 3.99876H6.99782C6.46755 3.99876 5.959 4.2094 5.58405 4.58436C5.20909 4.95932 4.99844 5.46787 4.99844 5.99813V8.9972" stroke="var(--stroke-0, #4A5565)" stroke-width="1.99938" stroke-linecap="round" stroke-linejoin="round"/>
<path id="Vector_2" d="M2.99907 15.995C2.99907 16.5253 3.20971 17.0338 3.58467 17.4088C3.95963 17.7838 4.46818 17.9944 4.99844 17.9944H18.9941C19.5244 17.9944 20.0329 17.7838 20.4079 17.4088C20.7828 17.0338 20.9935 16.5253 20.9935 15.995V10.9966C20.9935 10.4663 20.7828 9.95776 20.4079 9.5828C20.0329 9.20785 19.5244 8.9972 18.9941 8.9972C18.4638 8.9972 17.9553 9.20785 17.5803 9.5828C17.2054 9.95776 16.9947 10.4663 16.9947 10.9966V12.4961C16.9947 12.6287 16.942 12.7558 16.8483 12.8496C16.7546 12.9433 16.6274 12.996 16.4949 12.996H7.49767C7.3651 12.996 7.23796 12.9433 7.14422 12.8496C7.05048 12.7558 6.99782 12.6287 6.99782 12.4961V10.9966C6.99782 10.4663 6.78717 9.95776 6.41222 9.5828C6.03726 9.20785 5.52871 8.9972 4.99844 8.9972C4.46818 8.9972 3.95963 9.20785 3.58467 9.5828C3.20971 9.95776 2.99907 10.4663 2.99907 10.9966V15.995Z" stroke="var(--stroke-0, #4A5565)" stroke-width="1.99938" stroke-linecap="round" stroke-linejoin="round"/>
<path id="Vector_3" d="M4.99844 17.9944V19.9944" stroke="var(--stroke-0, #4A5565)" stroke-width="1.99938" stroke-linecap="round" stroke-linejoin="round"/>
<path id="Vector_4" d="M18.9941 17.9944V19.9944" stroke="var(--stroke-0, #4A5565)" stroke-width="1.99938" stroke-linecap="round" stroke-linejoin="round"/>
</g>
</svg>
