<svg preserveAspectRatio="none" width="100%" height="100%" overflow="visible" style="display: block;" viewBox="0 0 16 16" fill="none" xmlns="http://www.w3.org/2000/svg">
<g id="Icon" clip-path="url(#clip0_14_1794)">
<path id="Vector" d="M7.68094 1.52945C7.71015 1.47045 7.75527 1.42078 7.8112 1.38605C7.86714 1.35132 7.93167 1.33292 7.99751 1.33292C8.06335 1.33292 8.12788 1.35132 8.18382 1.38605C8.23976 1.42078 8.28487 1.47045 8.31408 1.52945L9.8536 4.64782C9.95502 4.85306 10.1047 5.03064 10.2899 5.16529C10.475 5.29995 10.6901 5.38766 10.9166 5.42091L14.3595 5.92475C14.4248 5.9342 14.4861 5.96172 14.5365 6.00419C14.5869 6.04666 14.6244 6.1024 14.6448 6.16508C14.6652 6.22777 14.6676 6.29491 14.6518 6.35891C14.636 6.42291 14.6027 6.48121 14.5555 6.52723L12.0656 8.95181C11.9014 9.11183 11.7785 9.30935 11.7076 9.52738C11.6366 9.74541 11.6198 9.97742 11.6584 10.2034L12.2462 13.629C12.2577 13.6942 12.2507 13.7614 12.2259 13.8228C12.2011 13.8841 12.1595 13.9373 12.1059 13.9762C12.0524 14.0152 11.9889 14.0382 11.9229 14.0428C11.8568 14.0474 11.7908 14.0334 11.7323 14.0022L8.65464 12.3841C8.45185 12.2776 8.22623 12.222 7.99718 12.222C7.76813 12.222 7.54251 12.2776 7.33972 12.3841L4.26267 14.0022C4.20425 14.0332 4.13831 14.0471 4.07237 14.0424C4.00642 14.0377 3.94312 14.0146 3.88965 13.9757C3.83619 13.9368 3.79471 13.8837 3.76993 13.8224C3.74515 13.7612 3.73807 13.6941 3.7495 13.629L4.33665 10.2041C4.37544 9.97798 4.35863 9.74583 4.28769 9.52766C4.21675 9.3095 4.0938 9.11186 3.92944 8.95181L1.43955 6.5279C1.39196 6.48193 1.35824 6.42353 1.34222 6.35933C1.32621 6.29514 1.32854 6.22774 1.34897 6.1648C1.36939 6.10187 1.40707 6.04594 1.45773 6.00338C1.50839 5.96082 1.56998 5.93335 1.63549 5.92409L5.07775 5.42091C5.30452 5.38792 5.51987 5.30032 5.70528 5.16565C5.89069 5.03097 6.04059 4.85327 6.14209 4.64782L7.68094 1.52945Z" fill="var(--fill-0, #FDC700)" stroke="var(--stroke-0, #FDC700)" stroke-width="1.33292" stroke-linecap="round" stroke-linejoin="round"/>
</g>
<defs>
<clipPath id="clip0_14_1794">
<rect width="15.995" height="15.995" fill="white"/>
</clipPath>
</defs>
</svg>
