<svg preserveAspectRatio="none" width="100%" height="100%" overflow="visible" style="display: block;" viewBox="0 0 24 24" fill="none" xmlns="http://www.w3.org/2000/svg">
<g id="Icon">
<path id="Vector" d="M11.9963 21.9932C17.5174 21.9932 21.9932 17.5174 21.9932 11.9963C21.9932 6.47514 17.5174 1.99938 11.9963 1.99938C6.47514 1.99938 1.99938 6.47514 1.99938 11.9963C1.99938 17.5174 6.47514 21.9932 11.9963 21.9932Z" stroke="var(--stroke-0, white)" stroke-width="1.99938" stroke-linecap="round" stroke-linejoin="round"/>
<path id="Vector_2" d="M11.9963 17.9944C15.3089 17.9944 17.9944 15.3089 17.9944 11.9963C17.9944 8.68359 15.3089 5.99813 11.9963 5.99813C8.68359 5.99813 5.99813 8.68359 5.99813 11.9963C5.99813 15.3089 8.68359 17.9944 11.9963 17.9944Z" stroke="var(--stroke-0, white)" stroke-width="1.99938" stroke-linecap="round" stroke-linejoin="round"/>
<path id="Vector_3" d="M11.9963 13.9956C13.1005 13.9956 13.9956 13.1005 13.9956 11.9963C13.9956 10.892 13.1005 9.99689 11.9963 9.99689C10.892 9.99689 9.99689 10.892 9.99689 11.9963C9.99689 13.1005 10.892 13.9956 11.9963 13.9956Z" stroke="var(--stroke-0, white)" stroke-width="1.99938" stroke-linecap="round" stroke-linejoin="round"/>
</g>
</svg>
