<svg preserveAspectRatio="none" width="100%" height="100%" overflow="visible" style="display: block;" viewBox="0 0 32 32" fill="none" xmlns="http://www.w3.org/2000/svg">
<g id="Icon">
<path id="Vector" d="M15.995 10.6633C18.2035 10.6633 19.9938 8.87304 19.9938 6.66459C19.9938 4.45614 18.2035 2.66584 15.995 2.66584C13.7866 2.66584 11.9963 4.45614 11.9963 6.66459C11.9963 8.87304 13.7866 10.6633 15.995 10.6633Z" stroke="var(--stroke-0, #155DFC)" stroke-width="2.66584" stroke-linecap="round" stroke-linejoin="round"/>
<path id="Vector_2" d="M8.66397 10.6633C8.08716 10.6693 7.52785 10.8623 7.07 11.2131C6.61216 11.564 6.28048 12.054 6.12476 12.6094L2.79913 24.659C2.69837 25.049 2.68728 25.4567 2.76672 25.8516C2.84615 26.2465 3.01404 26.6183 3.25776 26.9389C3.50149 27.2596 3.81472 27.5209 4.17392 27.7032C4.53311 27.8855 4.92895 27.984 5.33168 27.9913H26.6584C27.0698 27.9911 27.4756 27.8958 27.8441 27.7126C28.2125 27.5295 28.5335 27.2635 28.782 26.9356C29.0305 26.6077 29.1998 26.2268 29.2765 25.8225C29.3532 25.4183 29.3353 25.0018 29.2242 24.6057L25.8586 12.6627C25.7118 12.0941 25.3814 11.5899 24.9186 11.2284C24.4558 10.8668 23.8867 10.6682 23.2994 10.6633H8.66397Z" stroke="var(--stroke-0, #155DFC)" stroke-width="2.66584" stroke-linecap="round" stroke-linejoin="round"/>
</g>
</svg>
