<svg preserveAspectRatio="none" width="100%" height="100%" overflow="visible" style="display: block;" viewBox="0 0 24 24" fill="none" xmlns="http://www.w3.org/2000/svg">
<g id="Icon">
<path id="Vector" d="M3.99876 13.9956C3.80958 13.9963 3.6241 13.9432 3.46388 13.8427C3.30365 13.7421 3.17525 13.5981 3.09359 13.4275C3.01193 13.2568 2.98037 13.0665 3.00257 12.8786C3.02476 12.6908 3.09982 12.513 3.219 12.3661L13.1159 2.1693C13.1902 2.08361 13.2913 2.02571 13.4028 2.00509C13.5143 1.98447 13.6295 2.00237 13.7295 2.05584C13.8294 2.10932 13.9083 2.19519 13.953 2.29937C13.9977 2.40355 14.0057 2.51984 13.9757 2.62916L12.0562 8.64729C11.9997 8.79877 11.9806 8.96171 12.0009 9.12215C12.0211 9.28258 12.0799 9.43572 12.1723 9.56843C12.2647 9.70113 12.3879 9.80944 12.5314 9.88406C12.6748 9.95869 12.8343 9.9974 12.996 9.99687H19.9938C20.183 9.99622 20.3684 10.0493 20.5287 10.1498C20.6889 10.2504 20.8173 10.3944 20.8989 10.565C20.9806 10.7357 21.0122 10.926 20.99 11.1139C20.9678 11.3017 20.8927 11.4794 20.7735 11.6264L10.8766 21.8232C10.8024 21.9089 10.7012 21.9668 10.5897 21.9874C10.4782 22.008 10.3631 21.9901 10.2631 21.9366C10.1631 21.8832 10.0843 21.7973 10.0395 21.6931C9.9948 21.5889 9.98681 21.4727 10.0169 21.3633L11.9363 15.3452C11.9929 15.1937 12.0119 15.0308 11.9917 14.8703C11.9715 14.7099 11.9126 14.5568 11.8202 14.4241C11.7278 14.2914 11.6046 14.1831 11.4612 14.1084C11.3177 14.0338 11.1583 13.9951 10.9966 13.9956H3.99876Z" stroke="var(--stroke-0, white)" stroke-width="1.99938" stroke-linecap="round" stroke-linejoin="round"/>
</g>
</svg>
